<svg viewBox="0 0 24 24" xmlns="http://www.w3.org/2000/svg"><path d="M18.902 9.454v1h3.646v-1h-3.646zM19.326 11.787l-.453.893c1.085.547 2.167 1.102 3.252 1.649l.452-.893c-1.085-.547-2.166-1.102-3.251-1.649ZM22.125 5.579c-1.085.547-2.167 1.102-3.252 1.65l.453.892c1.083-.552 2.168-1.1 3.251-1.651l-.452-.891Z" style="line-height:normal;font-variant-ligatures:normal;font-variant-position:normal;font-variant-caps:normal;font-variant-numeric:normal;font-variant-alternates:normal;font-variant-east-asian:normal;font-feature-settings:normal;font-variation-settings:normal;text-indent:0;text-align:start;text-decoration-line:none;text-decoration-style:solid;text-decoration-color:#000;text-transform:none;text-orientation:mixed;white-space:normal;shape-padding:0;shape-margin:0;inline-size:0;isolation:auto;mix-blend-mode:normal;solid-color:#000;solid-opacity:1" transform="translate(.01)" color="#000000" font-style="normal" font-variant="normal" font-weight="400" font-stretch="normal" font-size="medium" font-family="sans-serif" text-decoration="none" letter-spacing="normal" word-spacing="normal" writing-mode="lr-tb" direction="ltr" dominant-baseline="auto" baseline-shift="baseline" text-anchor="start" clip-rule="nonzero" display="inline" overflow="visible" visibility="visible" color-interpolation="sRGB" color-interpolation-filters="linearRGB" vector-effect="none" fill="#ed5b30" fill-opacity="1" fill-rule="nonzero" stroke="none" stroke-width="1px" stroke-linecap="square" stroke-linejoin="miter" stroke-miterlimit="4" stroke-dasharray="none" stroke-dashoffset="0" stroke-opacity="1" color-rendering="auto" image-rendering="auto" shape-rendering="auto" text-rendering="auto" enable-background="accumulate" stop-color="#ed5b30" class="fill-000000 stop-color-000000"></path><path d="M13.754 45.11c-2.96.96-5.922 1.917-8.883 2.876-.056-.009-.107-.033-.166-.033H2.512c-.605 0-1.108.503-1.108 1.108v3.918c0 .604.503 1.107 1.108 1.107h.353l2.39 6.697h3.53l-2.13-6.36c2.365.492 4.731.982 7.097 1.473v.022c0 1.065.904 1.914 1.994 1.914 1.09 0 1.994-.85 1.994-1.914V45.133c0-1.065-.904-1.916-1.99-1.916-1.086 0-1.983.839-1.996 1.892zm1.992-.893c.577 0 .994.412.994.916v10.785c0 .503-.417.914-.994.914s-.994-.41-.994-.914V45.133c0-.504.417-.916.994-.916zm-1.994 1.943v8.715L5.824 53.23V48.73l7.928-2.569zm-11.24 2.793h2.193c.068 0 .108.04.108.108v1.459H2.404v-1.46c0-.067.04-.107.108-.107zm-.108 2.567h2.409v1.459c0 .067-.04.107-.108.107H2.512c-.068 0-.108-.04-.108-.107zm2.461 2.533.655.135 1.875 5.595H5.96l-2.035-5.697h.78c.056 0 .105-.025.16-.033z" style="line-height:normal;font-variant-ligatures:normal;font-variant-position:normal;font-variant-caps:normal;font-variant-numeric:normal;font-variant-alternates:normal;font-variant-east-asian:normal;font-feature-settings:normal;font-variation-settings:normal;text-indent:0;text-align:start;text-decoration-line:none;text-decoration-style:solid;text-decoration-color:#000;text-transform:none;text-orientation:mixed;white-space:normal;shape-padding:0;shape-margin:0;inline-size:0;isolation:auto;mix-blend-mode:normal;solid-color:#000;solid-opacity:1" transform="translate(.01 -40)" color="#000000" font-style="normal" font-variant="normal" font-weight="400" font-stretch="normal" font-size="medium" font-family="sans-serif" text-decoration="none" letter-spacing="normal" word-spacing="normal" writing-mode="lr-tb" direction="ltr" dominant-baseline="auto" baseline-shift="baseline" text-anchor="start" clip-rule="nonzero" display="inline" overflow="visible" visibility="visible" opacity="1" color-interpolation="sRGB" color-interpolation-filters="linearRGB" vector-effect="none" fill="#ed5b30" fill-opacity="1" fill-rule="nonzero" stroke="none" stroke-width=".999993" stroke-linecap="square" stroke-linejoin="miter" stroke-miterlimit="4" stroke-dasharray="none" stroke-dashoffset="0" stroke-opacity="1" paint-order="stroke fill markers" color-rendering="auto" image-rendering="auto" shape-rendering="auto" text-rendering="auto" enable-background="accumulate" stop-color="#ed5b30" stop-opacity="1" class="fill-000000 stop-color-000000"></path></svg>