<svg viewBox="0 0 64 64" xml:space="preserve" xmlns="http://www.w3.org/2000/svg" enable-background="new 0 0 64 64"><path d="M32 17c-8.271 0-15 6.729-15 15s6.729 15 15 15 15-6.729 15-15-6.729-15-15-15zm0 28c-3.675 0-6.992-1.54-9.359-4h18.718c-2.367 2.46-5.684 4-9.359 4zm-1.497-14.419C29.562 30.033 29 29.068 29 28v-2c0-.838.355-1.645.974-2.212a2.969 2.969 0 0 1 2.298-.776c1.529.133 2.728 1.536 2.728 3.196V28c0 1.068-.562 2.033-1.503 2.581L33 30.87v2.884l4.84 1.383A2.99 2.99 0 0 1 40 38v1H24v-1c0-1.322.888-2.5 2.16-2.863L31 33.754V30.87l-.497-.289zM42 40.295V38a4.998 4.998 0 0 0-3.61-4.786L35 32.246v-.266a5.005 5.005 0 0 0 2-3.979v-1.792c0-2.688-2.001-4.966-4.556-5.188a5.007 5.007 0 0 0-3.822 1.294A5.01 5.01 0 0 0 27 26v2c0 1.563.754 3.041 2 3.979v.266l-3.39.969A4.998 4.998 0 0 0 22 38v2.295A12.938 12.938 0 0 1 19 32c0-7.168 5.832-13 13-13s13 5.832 13 13c0 3.151-1.128 6.042-3 8.295z" fill="#ed5b30" class="fill-000000"></path><path d="M54 7h-9.184A2.996 2.996 0 0 0 42 5h-3.383A7.433 7.433 0 0 0 32 1a7.43 7.43 0 0 0-6.617 4H22a2.996 2.996 0 0 0-2.816 2H10c-1.654 0-3 1.346-3 3v50c0 1.654 1.346 3 3 3h44c1.654 0 3-1.346 3-3V10c0-1.654-1.346-3-3-3zm-3 42h-8v8H13V13h6v2h26v-2h6v36zm-1.414 2L45 55.586V51h4.586zM21 8c0-.551.449-1 1-1h4.618l.487-.975C28.039 4.159 29.914 3 32 3s3.961 1.159 4.895 3.024l.487.976H42c.551 0 1 .449 1 1v5H21V8zm34 52c0 .551-.449 1-1 1H10c-.551 0-1-.449-1-1V10c0-.551.449-1 1-1h9v2h-8v48h33.414L53 50.414V11h-8V9h9c.551 0 1 .449 1 1v50z" fill="#ed5b30" class="fill-000000"></path><path d="M39 49h2v2h-2zM15 49h22v2H15zM15 53h22v2H15zM39 53h2v2h-2zM32 5c-1.654 0-3 1.346-3 3s1.346 3 3 3 3-1.346 3-3-1.346-3-3-3zm0 4c-.551 0-1-.449-1-1s.449-1 1-1 1 .449 1 1-.449 1-1 1zM24 9h2v2h-2zM38 9h2v2h-2z" fill="#ed5b30" class="fill-000000"></path></svg>