<svg viewBox="0 0 60 60" xmlns="http://www.w3.org/2000/svg"><path d="M26.205 26.293a.999.999 0 0 0 0 1.414l6 6a.997.997 0 0 0 1.414 0 .999.999 0 0 0 0-1.414l-6-6a.999.999 0 0 0-1.414 0Zm-2.586 4a.999.999 0 1 0-1.414 1.414l6 6a.997.997 0 0 0 1.414 0 .999.999 0 0 0 0-1.414l-6-6Zm-4 4a.999.999 0 1 0-1.414 1.414l6 6a.997.997 0 0 0 1.414 0 .999.999 0 0 0 0-1.414l-6-6ZM38.5 32 27.911 21.414 13.326 36l10.586 10.586L38.498 32Zm-9.88-12.707 12 12a.999.999 0 0 1 0 1.414l-16 16a.997.997 0 0 1-1.414 0l-12-12a.999.999 0 0 1 0-1.414l16-16a.999.999 0 0 1 1.414 0Zm23.268 17.282a.998.998 0 0 0-1.369.357l-11.462 19.55c-.828 1.433-2.667 1.926-4.055 1.126l-2.233-1.447a.999.999 0 1 0-1.087 1.678l2.276 1.475a4.972 4.972 0 0 0 2.492.668 4.998 4.998 0 0 0 4.335-2.494l11.46-19.545a1 1 0 0 0-.357-1.368ZM59.912 5v16c0 3.094-.984 5.399-3.293 7.707l-29.698 29.74a4.968 4.968 0 0 1-3.537 1.464 4.958 4.958 0 0 1-3.534-1.464L1.465 40.063A4.969 4.969 0 0 1 0 36.526c0-1.336.52-2.591 1.465-3.535L27.44 7.05C20.647 5.509 16.432 5.405 15.2 5.766c.52.533 2.143 1.665 6.06 3.209a1 1 0 0 1-.733 1.86C12.418 7.64 12.892 5.868 13.071 5.2c.371-1.39 2.352-1.853 6.41-1.498 3.305.289 7.571 1.104 12.012 2.293 4.441 1.19 8.541 2.617 11.547 4.02 3.695 1.723 5.176 3.112 4.803 4.503-.36 1.342-2.23 1.506-2.846 1.56a1 1 0 0 1-.174-1.992c.426-.037.71-.095.892-.147-.428-.447-1.51-1.144-3.243-1.974a3.993 3.993 0 0 0-.56 2.035c0 2.206 1.794 4 4 4s4-1.794 4-4-1.794-4-4-4a1 1 0 1 1 0-2c3.31 0 6 2.69 6 6 0 3.309-2.69 6-6 6-3.309 0-6-2.691-6-6 0-1.003.264-1.98.735-2.852-2.393-1.005-5.603-2.13-9.67-3.221-.43-.115-.843-.22-1.256-.325L2.88 34.406A2.977 2.977 0 0 0 2 36.526c0 .802.312 1.555.88 2.122l18.384 18.385c1.133 1.133 3.11 1.133 4.242 0l29.698-29.74c1.95-1.948 2.708-3.713 2.708-6.293V5c0-1.654-1.346-3-3-3h-16c-2.58 0-4.345.759-6.293 2.707a.999.999 0 1 1-1.414-1.414C33.513.983 35.818 0 38.912 0h16c2.757 0 5 2.243 5 5Z" fill="#ed5b30" fill-rule="evenodd" class="fill-000000"></path></svg>