<svg viewBox="0 0 64 64" xml:space="preserve" xmlns="http://www.w3.org/2000/svg" enable-background="new 0 0 64 64"><path d="M58 15h-3V6c0-2.757-2.243-5-5-5H14c-2.757 0-5 2.243-5 5v9H6c-2.757 0-5 2.243-5 5v32c0 2.757 2.243 5 5 5h13v4h-4v2h34v-2h-4v-4h13c2.757 0 5-2.243 5-5V20c0-2.757-2.243-5-5-5zM11 6c0-1.654 1.346-3 3-3h36c1.654 0 3 1.346 3 3v26c0 1.654-1.346 3-3 3H36v5.234L27.277 35H14c-1.654 0-3-1.346-3-3V6zM6 17h3v15c0 2.757 2.243 5 5 5h12.723L38 43.766V37h12c2.757 0 5-2.243 5-5V17h3c1.654 0 3 1.346 3 3v27H3V20c0-1.654 1.346-3 3-3zm37 44H21v-4h22v4zm15-6H6c-1.654 0-3-1.346-3-3v-3h58v3c0 1.654-1.346 3-3 3z" fill="#ed5b30" class="fill-000000"></path><path d="M25 51h2v2h-2zM29 51h6v2h-6zM37 51h2v2h-2zM20 29h5V17h-2v-1c0-4.962 4.037-9 9-9s9 4.038 9 9v1h-2v12h2v1c0 .551-.448 1-1 1h-5.184A2.996 2.996 0 0 0 32 29c-1.654 0-3 1.346-3 3s1.346 3 3 3a2.996 2.996 0 0 0 2.816-2H40c1.654 0 3-1.346 3-3v-1h1c2.757 0 5-2.243 5-5v-2c0-2.757-2.243-5-5-5h-1v-1c0-6.065-4.935-11-11-11S21 9.935 21 16v1h-1c-2.757 0-5 2.243-5 5v2c0 2.757 2.243 5 5 5zm12 4a1.001 1.001 0 0 1 0-2 1.001 1.001 0 0 1 0 2zm15-11v2a2.996 2.996 0 0 1-2 2.816V21h-2v6h-2v-8h3c1.654 0 3 1.346 3 3zm-30 0c0-1.654 1.346-3 3-3h3v8h-2v-6h-2v5.816A2.996 2.996 0 0 1 17 24v-2zM19 43h2v2h-2zM5 43h12v2H5zM5 39h16v2H5zM57 43h2v2h-2zM43 43h12v2H43zM43 39h16v2H43z" fill="#ed5b30" class="fill-000000"></path></svg>