<svg xmlns="http://www.w3.org/2000/svg" viewBox="0 0 100 100"><path d="M30.86 15.34c-.51-4.92 1-7.35 5.55-9.1a6.88 6.88 0 0 1 4-.5A5.25 5.25 0 0 1 44.2 9.31c.76 0 1.55 0 2.34 0a27.68 27.68 0 0 1 14.75 3.13 22.5 22.5 0 0 1 9.31 9.13c1.58 2.9 1.37 3.88-1.48 5.6-5.34 3.22-11 5.55-17.34 6-.46 0-.91.12-1.51.2-.27.75-.53 1.55-.85 2.34-.5 1.27-1 2.55-1.59 3.78a4 4 0 0 1-3.19 2.31 16.63 16.63 0 0 1-6 0c-2.83-.6-3.38-2.17-1.54-4.35l1.72-2.06a2 2 0 0 0-.55 0 39.17 39.17 0 0 0-13.67 7.33 24.36 24.36 0 0 0-3.37 3.86 3.57 3.57 0 0 0-.31 4c.53 1 1 2 1.57 3.05.91 1.71 1.9 3.39 2.74 5.14A7.8 7.8 0 0 1 26.2 63c-1.05 1.17-1.42 1.31-2.62.66s-2.24-1.38-3.36-2.07-2.33-1.42-3.62-2.2l-4.36 4.75c-.78.85-1.53 1.71-2.34 2.52a9.36 9.36 0 0 1-1.6 1.28 1.77 1.77 0 0 1-2 0 1.6 1.6 0 0 1-.67-1.81 25.15 25.15 0 0 1 .84-3A73.29 73.29 0 0 1 13 50.27a19.48 19.48 0 0 0 2.24-5.53c1-3.82 1.86-7.68 3.11-11.41A38.75 38.75 0 0 1 30 16.08C30.3 15.86 30.55 15.62 30.86 15.34zM10.34 61.56a4.54 4.54 0 0 0 .79-.53c.92-.94 1.79-1.93 2.73-2.85 1.83-1.83 2.67-2 5-.74C20 58 21.1 58.7 22.2 59.34a29.53 29.53 0 0 0-2.05-4.14c-1.31-2.32-2.69-4.62-2.6-7.55-.64 1.26-1.18 2.38-1.77 3.47-1.5 2.76-3 5.5-4.54 8.26a18.4 18.4 0 0 0-.86 2.21c-.05.06-.1.11-.09.11S10.31 61.63 10.34 61.56zM68.64 24a16.87 16.87 0 0 0-4.09-5.72C59 13.16 52.38 11.59 45 12.25c-1 .09-1.92.2-2.95.31-.23-.82-.43-1.59-.67-2.34a2.16 2.16 0 0 0-1.58-1.64c-1.74-.42-5.42 1.51-6 3.21A3.56 3.56 0 0 0 33.61 13a8.68 8.68 0 0 0 .1 1.53 3.38 3.38 0 0 1-1.37 3.43A36.92 36.92 0 0 0 21.62 32.61a80.6 80.6 0 0 0-3.7 13c-.05.23-.13.44-.17.67s0 .42-.05 1a15.31 15.31 0 0 1 3.79-5.68A40.09 40.09 0 0 1 39 32.15 5.85 5.85 0 0 1 40.82 32a1.52 1.52 0 0 1 1.57 1.67 4.61 4.61 0 0 1-.93 2.89c-.54.77-1.12 1.51-1.76 2.38a10.13 10.13 0 0 0 5.38-.26c.43-1 .92-2 1.33-3.07s.76-2.27 1.17-3.4a2.44 2.44 0 0 1 2.7-1.88 14.74 14.74 0 0 0 3.24-.23 37.69 37.69 0 0 0 12.67-4.56C67 25.11 67.74 24.6 68.64 24zM72.24 35.38a1.77 1.77 0 0 1 2.62-.61c1.14.67 2.23 1.4 3.35 2.09L81.77 39c.66-.66 1.25-1.2 1.78-1.78 1.43-1.57 2.8-3.18 4.26-4.71a10.05 10.05 0 0 1 2.34-2 2.58 2.58 0 0 1 1.93 0 1.45 1.45 0 0 1 .69 1.78A28.41 28.41 0 0 1 91.69 36a75.86 75.86 0 0 1-6.21 12.22 18.33 18.33 0 0 0-2.24 5.53c-.76 3.11-1.46 6.24-2.38 9.3A40.34 40.34 0 0 1 68.27 82.47c-.22.19-.42.38-.66.6 0 .85.12 1.7.11 2.55A5.25 5.25 0 0 1 65.66 90a18.89 18.89 0 0 1-3.81 2.27c-3.21 1.34-6.21.48-7.63-3.1-.8 0-1.65 0-2.5 0A27.53 27.53 0 0 1 37.14 86a22.67 22.67 0 0 1-9.23-9c-1.66-3-1.49-3.9 1.44-5.74a39.13 39.13 0 0 1 17-6l1-.12.81-.11c.22-.6.44-1.24.69-1.87.57-1.43 1.09-2.88 1.75-4.27a3.93 3.93 0 0 1 3.21-2.3 15.81 15.81 0 0 1 6.64.21c2 .58 2.44 2 1.24 3.68-.23.33-.51.61-.77.92l-1.49 1.81c.73-.19 1.21-.27 1.66-.44a38.87 38.87 0 0 0 12.83-7.12 24.86 24.86 0 0 0 3.33-3.89 3.41 3.41 0 0 0 .28-3.73C77 47 76.48 46 75.92 44.89c-.91-1.72-1.89-3.4-2.74-5.15A8 8 0 0 1 72.24 35.38zm15.85 1.5a4.24 4.24 0 0 0-.78.52c-.88.9-1.71 1.85-2.6 2.74-1.95 1.94-2.84 2.08-5.31.79-1.08-.57-2.11-1.23-3.16-1.84a28.6 28.6 0 0 0 2.05 4.15c1.31 2.32 2.69 4.62 2.59 7.35.87-1.53 1.75-3.05 2.6-4.58 1.08-1.95 2.16-3.9 3.18-5.88.54-1.06.93-2.19 1.4-3.28l.09-.11S88.12 36.81 88.09 36.88zM56.38 86c.22.8.39 1.58.67 2.32.51 1.36 1.26 1.88 2.64 1.56a13.57 13.57 0 0 0 3.13-1.31 3.6 3.6 0 0 0 2-4c0-.34-.08-.68-.13-1a2.87 2.87 0 0 1 1.2-2.83 37.4 37.4 0 0 0 3.39-3.15 38.42 38.42 0 0 0 9.09-16.14c1-3.26 1.67-6.59 2.49-9.89a20 20 0 0 1-6 7.23 42 42 0 0 1-13.45 7 14.23 14.23 0 0 1-3 .67c-1.87.18-2.75-.79-2.21-2.6a14.85 14.85 0 0 1 1.69-3.13c.24-.41.55-.77 1.1-1.52l-5.4.32c-.46.94-.9 1.74-1.23 2.57-.58 1.49-1.09 3-1.65 4.5a2.14 2.14 0 0 1-2.22 1.52c-6.45 0-12.15 2.44-17.59 5.62a7.81 7.81 0 0 0-1 .74 12.53 12.53 0 0 0 2.85 4.48c4.53 5 10.32 7.24 17 7.4C51.86 86.37 54 86.1 56.38 86z" fill="#ed5b30"/><path d="M46.12 19.16a17.93 17.93 0 0 0-13.35 6.42 11.33 11.33 0 0 1-.78.91 1.4 1.4 0 0 1-2.2-1.7 4.87 4.87 0 0 1 .6-.83 21.34 21.34 0 0 1 17.26-7.68 3.82 3.82 0 0 1 .68.07c1 .21 1.4.71 1.36 1.49a1.45 1.45 0 0 1-1.5 1.35 8.86 8.86 0 0 1-1 0zM51.52 80.35c-.46 0-1-.07-1.49-.16a1.31 1.31 0 0 1-1.29-1.32 1.43 1.43 0 0 1 1.4-1.45 6.14 6.14 0 0 1 .86 0A18 18 0 0 0 65.93 70.7a5.07 5.07 0 0 1 .55-.66 1.47 1.47 0 0 1 1.89 0 1.37 1.37 0 0 1 .32 1.72 4.14 4.14 0 0 1-.69 1 20.76 20.76 0 0 1-14.55 7.51z" fill="#ed5b30"/></svg>
